<?xml version="1.0" encoding="utf-8"?>
<!-- Generator: Adobe Illustrator 22.1.0, SVG Export Plug-In . SVG Version: 6.00 Build 0)  -->
<svg version="1.1" id="Layer_1" xmlns="http://www.w3.org/2000/svg" xmlns:xlink="http://www.w3.org/1999/xlink" x="0px" y="0px"
	 viewBox="0 0 98.1 96.8" style="enable-background:new 0 0 98.1 96.8;" xml:space="preserve">
<style type="text/css">
	.st0{fill:url(#SVGID_1_);}
	.st1{fill:url(#SVGID_2_);}
	.st2{fill:url(#SVGID_3_);}
	.st3{fill:url(#SVGID_4_);}
</style>
<g>
	<g>
		
			<linearGradient id="SVGID_1_" gradientUnits="userSpaceOnUse" x1="-90.5585" y1="705.1264" x2="-65.1254" y2="679.6933" gradientTransform="matrix(-0.7071 0.7071 -0.7071 -0.7071 482.766 587.6984)">
			<stop  offset="0.1075" style="stop-color:#8F67FF"/>
			<stop  offset="0.3602" style="stop-color:#B8639B"/>
			<stop  offset="0.8232" style="stop-color:#FF8629"/>
		</linearGradient>
		<path class="st0" d="M45.3,35.6c1.2-1.2,3.2-1.2,4.4,0l27.8,27.8c1.2,1.2,3.2,1.2,4.4,0l7-7c1.2-1.2,1.2-3.2,0-4.4L50.4,13.5
			c-1.2-1.2-3.2-1.2-4.4,0L7.6,52c-1.2,1.2-1.2,3.2,0,4.4l6.3,6.3c1.2,1.2,3.2,1.2,4.4,0L45.3,35.6z"/>
	</g>
	<g>
		<linearGradient id="SVGID_2_" gradientUnits="userSpaceOnUse" x1="30.0393" y1="70.5806" x2="39.6618" y2="60.9581">
			<stop  offset="0" style="stop-color:#05B3E9"/>
			<stop  offset="0.137" style="stop-color:#10ACEB"/>
			<stop  offset="0.3812" style="stop-color:#2F9AEF"/>
			<stop  offset="0.7017" style="stop-color:#607CF7"/>
			<stop  offset="1" style="stop-color:#945DFF"/>
		</linearGradient>
		<path class="st1" d="M41.4,71.7c0,1.7-1.4,3.1-3.1,3.1h-9.4c-1.7,0-3.1-1.4-3.1-3.1v-9.4c0-1.7,1.4-3.1,3.1-3.1h9.4
			c1.7,0,3.1,1.4,3.1,3.1V71.7z"/>
	</g>
	<g>
		<linearGradient id="SVGID_3_" gradientUnits="userSpaceOnUse" x1="49.7302" y1="62.0932" x2="59.3527" y2="52.4707">
			<stop  offset="0" style="stop-color:#05B3E9"/>
			<stop  offset="0.137" style="stop-color:#10ACEB"/>
			<stop  offset="0.3812" style="stop-color:#2F9AEF"/>
			<stop  offset="0.7017" style="stop-color:#607CF7"/>
			<stop  offset="1" style="stop-color:#945DFF"/>
		</linearGradient>
		<path class="st2" d="M61.1,63.2c0,1.7-1.4,3.1-3.1,3.1h-9.4c-1.7,0-3.1-1.4-3.1-3.1v-9.4c0-1.7,1.4-3.1,3.1-3.1H58
			c1.7,0,3.1,1.4,3.1,3.1V63.2z"/>
	</g>
	<g>
		<linearGradient id="SVGID_4_" gradientUnits="userSpaceOnUse" x1="57.1991" y1="81.545" x2="66.8217" y2="71.9225">
			<stop  offset="0" style="stop-color:#05B3E9"/>
			<stop  offset="0.137" style="stop-color:#10ACEB"/>
			<stop  offset="0.3812" style="stop-color:#2F9AEF"/>
			<stop  offset="0.7017" style="stop-color:#607CF7"/>
			<stop  offset="1" style="stop-color:#945DFF"/>
		</linearGradient>
		<path class="st3" d="M68.6,82.7c0,1.7-1.4,3.1-3.1,3.1h-9.4c-1.7,0-3.1-1.4-3.1-3.1v-9.4c0-1.7,1.4-3.1,3.1-3.1h9.4
			c1.7,0,3.1,1.4,3.1,3.1V82.7z"/>
	</g>
</g>
</svg>
