
	<svg xmlns="http://www.w3.org/2000/svg" xmlns:xlink="http://www.w3.org/1999/xlink" version="1.1" width="128" height="128" viewBox="0 0 100 100">


		<defs>
			<g id="background">
<path fill="url(#background-gradient)" stroke="none" d=" M 100 18.4 Q 100 10.8 94.6 5.4 89.05 0 81.6 0 L 18.4 0 Q 10.8 0 5.4 5.4 0 10.8 0 18.4 L 0 81.6 Q 0 89.05 5.4 94.6 10.8 100 18.4 100 L 81.6 100 Q 89.05 100 94.6 94.6 100 89.05 100 81.6 L 100 18.4 Z"/>
</g><g id="middle-1">
<path fill="#FFFFFF" fill-opacity="0.30196078431372547" stroke="none" d=" M 100 19.2 Q 100 11.15 94.4 5.65 88.75 0 80.8 0 L 19.2 0 Q 11.15 0 5.65 5.65 0 11.15 0 19.2 L 0 80.8 Q 0 88.75 5.65 94.4 11.15 100 19.2 100 L 80.8 100 Q 88.75 100 94.4 94.4 100 88.75 100 80.8 L 100 19.2 M 82.5 6.1 Q 87.2 6.1 90.55 9.45 93.8 12.7 93.8 17.4 L 93.8 82.5 Q 93.8 87.2 90.55 90.55 87.2 93.8 82.5 93.8 L 17.4 93.8 Q 12.7 93.8 9.45 90.55 6.1 87.2 6.1 82.5 L 6.1 17.4 Q 6.1 12.7 9.45 9.45 12.7 6.1 17.4 6.1 L 82.5 6.1 Z"/>
</g><mask id="mask">
<path fill="#FFFFFF" stroke="none" d=" M 100 18.4 Q 100 10.8 94.6 5.4 89.05 0 81.6 0 L 18.4 0 Q 10.8 0 5.4 5.4 0 10.8 0 18.4 L 0 81.6 Q 0 89.05 5.4 94.6 10.8 100 18.4 100 L 81.6 100 Q 89.05 100 94.6 94.6 100 89.05 100 81.6 L 100 18.4 Z"/>
</mask>
			
	<linearGradient id="background-gradient" x1="0" y1="0" y2="1" x2="0" >
		<stop stop-color="#76B59B" offset="0%"/>
		<stop stop-color="#76B59B" offset="100%"/>
	</linearGradient>

			
			
			<g transform="scale(3.1055903564443987) translate(0.09999999403953552 0.14999905228614807)" id="picture"><path d="M31.7 14.3L26 9V1.5c0-.3-.2-.5-.5-.5h-4c-.3 0-.5.2-.5.5v2.8l-4.3-4c-.4-.4-1-.4-1.4 0l-.2.2L.3 14.3c-.3.2-.4.7-.2 1.1.1.3.5.6.9.6h4v15c0 .6.4 1 1 1h19c.6 0 1-.4 1-1V16h5c.4 0 .8-.3.9-.6.2-.4.1-.9-.2-1.1zM22 5V2h3v6l-3-2.8V5zm-4 25h-4v-7h4v7zm7-16c-.6 0-1 .4-1 1v15h-5v-7.5c0-.3-.2-.5-.5-.5h-5c-.3 0-.5.2-.5.5V30H7V15c0-.6-.4-1-1-1H3.5L16 2.4 28.5 14H25z M13 16c0 1.7 1.3 3 3 3s3-1.3 3-3-1.3-3-3-3-3 1.3-3 3zm5 0c0 1.1-.9 2-2 2s-2-.9-2-2 .9-2 2-2 2 .9 2 2z"/></g>
			
	<linearGradient id="picture-gradient" x1="0" y1="0" y2="1" x2="0" >
		<stop stop-color="#ffffff" offset="0%"/>
		<stop stop-color="#ffffff" offset="100%"/>
	</linearGradient>

		</defs>

		

			<use xlink:href="#background" fill="url(#background-gradient)" />

		<use xlink:href="#middle-1" />

			<g mask="url(#mask)">
				<g transform="
				        translate(
                                50 50
)
                            translate(0 0)  scale(0.5)  
                            translate(
                                -50 -50
)">
						<use xlink:href="#picture" fill="url(#picture-gradient)"  />
				</g>
			</g>

		



	</svg>
