<?xml version="1.0" encoding="utf-8"?>
<!-- Generator: Adobe Illustrator 22.1.0, SVG Export Plug-In . SVG Version: 6.00 Build 0)  -->
<svg version="1.1" id="Layer_1" xmlns="http://www.w3.org/2000/svg" xmlns:xlink="http://www.w3.org/1999/xlink" x="0px" y="0px"
	 viewBox="0 0 638 132" style="enable-background:new 0 0 638 132;" xml:space="preserve">
<style type="text/css">
	.st0{fill:url(#SVGID_1_);}
	.st1{fill:url(#SVGID_2_);}
	.st2{fill:url(#SVGID_3_);}
	.st3{fill:url(#SVGID_4_);}
</style>
<g fill="#d6d6d6">
	<path d="M173.1,15.3h20.8v75.7h47.2v18.9h-68V15.3z"/>
	<path d="M244.9,89.1v-0.3c0-15.8,12-23.1,29.2-23.1c7.3,0,12.6,1.2,17.7,3v-1.2c0-8.5-5.3-13.2-15.5-13.2c-7.8,0-13.4,1.5-20,3.9
		l-5.1-15.7c8-3.5,15.8-5.8,28.1-5.8c11.2,0,19.3,3,24.5,8.1c5.4,5.4,7.8,13.4,7.8,23.1v42h-19.9V102c-5,5.5-11.9,9.2-21.9,9.2
		C256.1,111.2,244.9,103.4,244.9,89.1z M292,84.3v-3.6c-3.5-1.6-8.1-2.7-13.1-2.7c-8.8,0-14.2,3.5-14.2,10v0.3
		c0,5.5,4.6,8.8,11.2,8.8C285.5,97,292,91.8,292,84.3z"/>
	<path d="M319.1,37.4h20.5v10.3c4.7-6.1,10.8-11.6,21.2-11.6c15.5,0,24.6,10.3,24.6,26.9v46.9h-20.5V69.5c0-9.7-4.6-14.7-12.4-14.7
		c-7.8,0-12.8,5-12.8,14.7v40.4h-20.5V37.4z"/>
	<path d="M388.8,89.1v-0.3c0-15.8,12-23.1,29.2-23.1c7.3,0,12.6,1.2,17.7,3v-1.2c0-8.5-5.3-13.2-15.5-13.2c-7.8,0-13.4,1.5-20,3.9
		L395,42.4c8-3.5,15.8-5.8,28.1-5.8c11.2,0,19.3,3,24.5,8.1c5.4,5.4,7.8,13.4,7.8,23.1v42h-19.9V102c-5,5.5-11.9,9.2-21.9,9.2
		C400,111.2,388.8,103.4,388.8,89.1z M436,84.3v-3.6c-3.5-1.6-8.1-2.7-13.1-2.7c-8.8,0-14.2,3.5-14.2,10v0.3c0,5.5,4.6,8.8,11.2,8.8
		C429.5,97,436,91.8,436,84.3z"/>
	<path d="M463,37.4h20.5V52c4.2-10,10.9-16.5,23.1-15.9v21.5h-1.1c-13.6,0-22,8.2-22,25.5v26.8H463V37.4z"/>
	<path d="M511.4,11.2h20.5v52.6L556,37.4h24.6L553,65.9l28.5,43.9h-23.8l-18.5-29.7l-7.3,7.7v22h-20.5V11.2z"/>
</g>
<g>
	
		<linearGradient id="SVGID_1_" gradientUnits="userSpaceOnUse" x1="169.3973" y1="821.0706" x2="205.2749" y2="785.1931" gradientTransform="matrix(-0.7071 0.7071 -0.7071 -0.7071 782.8736 491.3898)">
		<stop  offset="0.1075" style="stop-color:#8F67FF"/>
		<stop  offset="0.3602" style="stop-color:#B8639B"/>
		<stop  offset="0.8232" style="stop-color:#FF8629"/>
	</linearGradient>
	<polygon class="st0" points="81.5,42.7 124.8,85.9 140,70.6 82.5,13.1 25,70.6 39.3,84.9 	"/>
	<linearGradient id="SVGID_2_" gradientUnits="userSpaceOnUse" x1="57.4676" y1="93.2828" x2="72.0967" y2="78.6537">
		<stop  offset="0" style="stop-color:#05B3E9"/>
		<stop  offset="0.137" style="stop-color:#10ACEB"/>
		<stop  offset="0.3812" style="stop-color:#2F9AEF"/>
		<stop  offset="0.7017" style="stop-color:#607CF7"/>
		<stop  offset="1" style="stop-color:#945DFF"/>
	</linearGradient>
	<rect x="52.4" y="77.3" class="st1" width="21" height="21"/>
	<linearGradient id="SVGID_3_" gradientUnits="userSpaceOnUse" x1="83.9309" y1="81.8762" x2="98.56" y2="67.2471">
		<stop  offset="0" style="stop-color:#05B3E9"/>
		<stop  offset="0.137" style="stop-color:#10ACEB"/>
		<stop  offset="0.3812" style="stop-color:#2F9AEF"/>
		<stop  offset="0.7017" style="stop-color:#607CF7"/>
		<stop  offset="1" style="stop-color:#945DFF"/>
	</linearGradient>
	<rect x="78.9" y="65.9" class="st2" width="21" height="21"/>
	<linearGradient id="SVGID_4_" gradientUnits="userSpaceOnUse" x1="93.9687" y1="108.0183" x2="108.5978" y2="93.3891">
		<stop  offset="0" style="stop-color:#05B3E9"/>
		<stop  offset="0.137" style="stop-color:#10ACEB"/>
		<stop  offset="0.3812" style="stop-color:#2F9AEF"/>
		<stop  offset="0.7017" style="stop-color:#607CF7"/>
		<stop  offset="1" style="stop-color:#945DFF"/>
	</linearGradient>
	<rect x="88.9" y="92.1" class="st3" width="21" height="21"/>
</g>
</svg>
